<svg xmlns="http://www.w3.org/2000/svg" viewBox="0 0 2523.89 691.6"><defs><style>.cls-1{fill:#2c599b;}.cls-2{font-size:379.45px;fill:#2c599d;font-family:Roboto-Bold, Roboto;font-weight:700;}.cls-3{letter-spacing:-0.01em;}.cls-4{letter-spacing:0em;}.cls-5{fill:#f98125;}</style></defs><g id="Layer_2" data-name="Layer 2"><g id="layer_1-2" data-name="layer 1"><path class="cls-1" d="M232.65,492.59l-9.43-16.31,9.41,16.31c1,1.74,2,3.49,2.83,5.27C234.6,496.08,233.66,494.33,232.65,492.59Zm336-388A153.11,153.11,0,0,0,374.9,7.89a154.78,154.78,0,0,0-53,30.6c-1.17,1-2.32,2.1-3.47,3.16q5,4.73,9.63,9.94a152,152,0,0,1,11.72,15.08c2.18,3.18,4.26,6.49,6.23,9.9a155.74,155.74,0,0,1,8.13,16.24,91.84,91.84,0,0,1,140.4,118.41l-91.05,91L419.4,329.9l15.18,26.27,1.07,1.07,99.73-99.73,5.44-6.18A153.28,153.28,0,0,0,568.61,104.6Z"/><path class="cls-1" d="M515.09,556.79a154.08,154.08,0,0,1-11.24,41.85,152.31,152.31,0,0,1-39.24,54.47,155,155,0,0,1-53,30.6,152.17,152.17,0,0,1-66.81,6.78A154.74,154.74,0,0,1,303,679.28,151.94,151.94,0,0,1,258.1,650a152.19,152.19,0,0,0,35.71-51.16,87.67,87.67,0,0,0,9.57,9.51,91.86,91.86,0,0,0,150-86.61,91,91,0,0,0-10.78-29.1L290.81,229.64a154.78,154.78,0,0,1-12.65-28,152.6,152.6,0,0,1-6.78-66.81A154.23,154.23,0,0,1,282.62,93l.06-.15A152.17,152.17,0,0,1,318.4,41.65q5,4.73,9.63,9.94a152,152,0,0,1,11.72,15.08c2.18,3.18,4.26,6.49,6.23,9.9a155.74,155.74,0,0,1,8.13,16.24,7.57,7.57,0,0,0-.53.6,91.66,91.66,0,0,0-18.3,33.76c-.33,1.17-.66,2.34-.95,3.52-.37,1.43-.7,2.89-1,4.35s-.52,2.65-.72,4-.37,2.67-.54,4-.26,2.69-.35,4.05A91.37,91.37,0,0,0,341,193.74c.86,1.78,1.81,3.53,2.81,5.28l9.43,16.3v0l50.19,86.92L419.4,329.9l15.18,26.27L495.66,462a152.51,152.51,0,0,1,19.43,94.83Z"/><path class="cls-1" d="M121.76,147.08a91.37,91.37,0,0,0,9.29,46.66c.86,1.78,1.8,3.53,2.81,5.28L285.68,462a152.81,152.81,0,0,1,8.19,136.68l-.06.15A152.19,152.19,0,0,1,258.1,650c-3.35-3.14-6.56-6.47-9.64-9.94a154.09,154.09,0,0,1-26.08-41.22,7.57,7.57,0,0,0,.53-.6,91.5,91.5,0,0,0,18.3-33.76c.33-1.17.66-2.34.95-3.51.37-1.44.7-2.9,1-4.36.27-1.31.52-2.65.72-4s.37-2.67.54-4,.26-2.69.35-4a91.49,91.49,0,0,0-9.29-46.67c-.86-1.78-1.8-3.53-2.81-5.27l-9.43-16.31v0L173,389.34l-31.12-53.91,0,0L80.83,229.64A152.83,152.83,0,0,1,72.64,93a152.22,152.22,0,0,1,39.25-54.47c1.89-1.66,3.84-3.31,5.83-4.89Q122.19,30,127,26.76c3.18-2.17,6.49-4.25,9.9-6.22s6.86-3.78,10.33-5.46c2.32-1.11,4.66-2.18,7-3.17,3.53-1.47,7.08-2.83,10.67-4a152.33,152.33,0,0,1,66.81-6.78c.91.1,1.79.23,2.7.35,1.78.27,3.57.53,5.36.84l2.67.5c1.78.34,3.55.73,5.32,1.13A154.25,154.25,0,0,1,266,9.33c1.71.61,3.39,1.27,5.07,1.95l2.51,1.05A152.09,152.09,0,0,1,318.4,41.65a152.17,152.17,0,0,0-35.72,51.16c-1.48-1.7-3-3.36-4.62-5-.8-.8-1.6-1.58-2.42-2.34-.44-.37-.85-.76-1.26-1.13s-.84-.76-1.27-1.11c-2.1-1.78-4.25-3.47-6.49-5-1.11-.78-2.24-1.54-3.37-2.28a0,0,0,0,1,0,0c-1.15-.72-2.3-1.44-3.45-2.11,0,0,0,0,0,0-2.34-1.36-4.75-2.63-7.19-3.78a95.57,95.57,0,0,0-11.32-4.44c-1.27-.41-2.56-.78-3.88-1.13-.63-.18-1.31-.35-2-.51-1.29-.33-2.61-.62-3.92-.89a92.13,92.13,0,0,0-34.88-.26c-1.25.22-2.48.49-3.73.78s-2.49.59-3.72.92-2.49.72-3.7,1.11c-.86.27-1.72.56-2.59.88-1.31.48-2.6,1-3.9,1.48-1,.39-2,.8-2.91,1.24a88.46,88.46,0,0,0-8.57,4.35c-2.32,1.33-4.58,2.77-6.73,4.29a91.88,91.88,0,0,0-35.45,49.33c-.33,1.17-.66,2.34-1,3.52-.37,1.43-.7,2.89-1,4.35s-.52,2.65-.72,4-.37,2.67-.54,4S121.85,145.72,121.76,147.08Z"/><path class="cls-1" d="M258.1,650c-1.15,1.07-2.3,2.11-3.48,3.16-1.88,1.66-3.84,3.31-5.83,4.89q-4.47,3.57-9.26,6.84c-3.18,2.17-6.49,4.25-9.9,6.22s-6.86,3.78-10.33,5.46c-2.32,1.11-4.66,2.18-7,3.17-3.54,1.5-7.09,2.83-10.68,4a152.18,152.18,0,0,1-66.81,6.78c-.91-.1-1.79-.23-2.7-.35-1.78-.27-3.57-.53-5.36-.84l-2.67-.49c-1.78-.35-3.55-.74-5.31-1.13a152,152,0,0,1-18.2-5.41c-1.71-.61-3.39-1.27-5.07-1.95l-2.51-1A152.05,152.05,0,0,1,38.48,640a149.71,149.71,0,0,1-11.72-15.08c-2.18-3.18-4.26-6.49-6.23-9.9A154.38,154.38,0,0,1,7.88,587a151.9,151.9,0,0,1-6.76-66.79,153.74,153.74,0,0,1,11.2-41.84c.39-.92.8-1.85,1.21-2.75s.7-1.56,1.07-2.32q1.2-2.52,2.46-5l1.15-2.2c.93-1.72,1.89-3.45,2.9-5.13.47-.8.94-1.6,1.44-2.41,1-1.6,2-3.16,3-4.72.52-.78,1.05-1.56,1.59-2.32.9-1.33,1.82-2.63,2.79-3.92,1.85-2.51,3.76-4.93,5.75-7.31l5.44-6.19,99.73-99.73,1.07,1.07L173,389.34,82,480.39q-1.91,2.31-3.63,4.74c-.39.53-.78,1.09-1.13,1.62q-1.11,1.63-2.16,3.33c-.37.55-.7,1.13-1,1.68-1.37,2.33-2.65,4.71-3.8,7.13-.24.54-.51,1.07-.73,1.6s-.54,1.15-.79,1.75-.55,1.29-.82,1.95-.45,1.15-.65,1.75-.48,1.21-.68,1.82-.43,1.24-.64,1.87-.41,1.23-.59,1.87c-.13.35-.23.72-.33,1.09-.21.66-.39,1.29-.56,1.95s-.31,1.17-.45,1.75c-.29,1.11-.53,2.21-.76,3.32-.1.48-.2.95-.29,1.4s-.18.92-.26,1.42-.19,1-.27,1.5c0,.3-.08.61-.14.94-.11.64-.19,1.3-.27,2s-.17,1.3-.23,1.95c0,.21-.06.44-.06.66-.12,1-.2,2-.27,3.06A92,92,0,0,0,87.79,603.1q2.71,2.74,5.61,5.22c2.1,1.78,4.25,3.47,6.49,5,1.11.78,2.24,1.54,3.37,2.28l0,0c1.13.72,2.28,1.44,3.45,2.12l0,0c2.34,1.37,4.75,2.62,7.19,3.78A93.82,93.82,0,0,0,125.26,626c1.27.41,2.56.78,3.88,1.13.65.19,1.31.35,2,.51,1.29.33,2.61.62,3.92.89a91.33,91.33,0,0,0,34.88.26c1.25-.22,2.48-.49,3.73-.78s2.49-.59,3.72-.92,2.49-.72,3.7-1.11c.86-.27,1.72-.55,2.59-.88,1.31-.45,2.6-1,3.9-1.48A89.28,89.28,0,0,0,199,618.05c1.13-.65,2.24-1.33,3.35-2a92,92,0,0,0,9.3-6.76c1.95-1.62,3.82-3.3,5.59-5s3.49-3.55,5.11-5.42A154.09,154.09,0,0,0,248.46,640C251.54,643.48,254.75,646.81,258.1,650Z"/><text class="cls-2" transform="translate(712.59 456.69)">Sa<tspan class="cls-3" x="438.37" y="0">f</tspan><tspan class="cls-4" x="566.22" y="0">e</tspan><tspan class="cls-5" x="764.65" y="0">Space</tspan></text></g></g></svg>